<svg xmlns="http://www.w3.org/2000/svg" width="20" height="15" viewBox="0 0 20 15">
    <g fill="none" fill-rule="evenodd">
        <g fill="#FFF" fill-rule="nonzero">
            <g>
                <path d="M180.162 24.019c-.13.14-.154.293-.162.425.015.142.07.328.163.433l6.099 6.911c.101.142.258.211.42.22.179.01.366-.05.508-.175.135-.118.208-.283.218-.449.01-.166-.043-.335-.163-.46l-5.142-5.82h17.24c.181 0 .345-.073.464-.192.12-.12.193-.284.193-.465 0-.182-.074-.346-.193-.465-.119-.12-.283-.193-.465-.193h-17.239l5.145-5.822c.124-.117.169-.277.154-.435-.017-.178-.107-.356-.25-.481-.03-.027-.063-.055-.118-.05-.065.004-.148.038-.262.106-.247.147-.61.445-1.174.99-1.018.987-2.674 2.771-5.436 5.922z" transform="translate(-500.000000, -697.000000) translate(320.000000, 680.000000) translate(190.000000, 24.504736) scale(-1, 1) translate(-190.000000, -24.504736)"/>
            </g>
        </g>
    </g>
</svg>
