<svg width="32" height="32" viewBox="0 0 32 32" xmlns="http://www.w3.org/2000/svg" xmlns:xlink="http://www.w3.org/1999/xlink">
    <defs>
        <path d="M7.478 14H.773A.773.773 0 0 1 0 13.227V.773C0 .346.346 0 .773 0h12.454c.427 0 .773.346.773.773v12.454a.773.773 0 0 1-.773.773H9.66V8.578h1.82l.272-2.112H9.66v-1.35c0-.611.17-1.028 1.047-1.028h1.119v-1.89a14.957 14.957 0 0 0-1.63-.084c-1.614 0-2.718.985-2.718 2.793v1.559H5.653v2.112h1.825V14z" id="xrq7ms6jfa"/>
    </defs>
    <g fill="none" fill-rule="evenodd">
        <path d="M16 .5c4.28 0 8.155 1.735 10.96 4.54A15.451 15.451 0 0 1 31.5 16c0 4.28-1.735 8.155-4.54 10.96A15.451 15.451 0 0 1 16 31.5c-4.28 0-8.155-1.735-10.96-4.54A15.451 15.451 0 0 1 .5 16c0-4.28 1.735-8.155 4.54-10.96A15.451 15.451 0 0 1 16 .5z" stroke="#D3D3D3" fill="#FFF"/>
        <use fill="#333" fill-rule="nonzero" xlink:href="#xrq7ms6jfa" transform="translate(9 9)"/>
    </g>
</svg>
