<svg width="20" height="19" xmlns="http://www.w3.org/2000/svg">
    <path d="M10.035.094a9.15 9.15 0 1 0 0 18.3 9.15 9.15 0 0 0 0-18.3zm2.41 12.6-.097.428c-.523 2.306-1.547 4.072-2.313 4.072-.74 0-1.718-1.642-2.256-3.827l-.058-.245-.097-.428h4.821zm-6.04 0 .056.283c.21 1.064.509 2.028.879 2.846l.142.3.413.831-.859-.351a7.984 7.984 0 0 1-3.704-3.101l-.172-.282-.305-.526h3.55zm10.81 0-.306.526a7.994 7.994 0 0 1-3.574 3.252l-.302.13-.859.352.413-.83c.388-.781.707-1.714.938-2.753l.083-.394.056-.283h3.55zm.44-5.7.068.263c.172.664.262 1.325.262 1.987 0 .53-.058 1.06-.169 1.59l-.093.398-.068.262H13.84l.035-.382a20.565 20.565 0 0 0 .047-3.12l-.047-.616-.035-.382h3.815zm-5.026 0 .032.315a19.043 19.043 0 0 1 .043 3.392l-.043.479-.032.314H7.44l-.032-.314a19.043 19.043 0 0 1-.043-3.392l.043-.48.032-.314h5.189zm-6.4 0-.035.382a20.565 20.565 0 0 0-.047 3.12l.047.616.035.382H2.414l-.068-.262a7.902 7.902 0 0 1-.261-1.988c0-.53.057-1.059.168-1.59l.093-.397.068-.263h3.815zm5.945-5.46.859.352a7.984 7.984 0 0 1 3.705 3.1l.171.283.305.525h-3.55l-.056-.282c-.21-1.064-.509-2.029-.879-2.847l-.142-.3-.413-.83zm-2.14-.24c.74 0 1.718 1.643 2.256 3.828l.058.245.097.427h-4.82l.096-.427c.524-2.306 1.547-4.073 2.314-4.073zm-2.14.24-.412.831c-.388.781-.707 1.714-.938 2.753l-.083.394-.055.282H2.855l.305-.525a7.994 7.994 0 0 1 3.574-3.252l.302-.131.859-.351z" fill="#B6B6CD" fill-rule="nonzero"/>
</svg>
