<svg width="32" height="32" viewBox="0 0 32 32" xmlns="http://www.w3.org/2000/svg">
    <g fill="none" fill-rule="evenodd">
        <path d="M16 .5c4.28 0 8.155 1.735 10.96 4.54A15.451 15.451 0 0 1 31.5 16c0 4.28-1.735 8.155-4.54 10.96A15.451 15.451 0 0 1 16 31.5c-4.28 0-8.155-1.735-10.96-4.54A15.451 15.451 0 0 1 .5 16c0-4.28 1.735-8.155 4.54-10.96A15.451 15.451 0 0 1 16 .5z" stroke="#D3D3D3" fill="#FFF"/>
        <path d="M19.817 9c1.078 0 2.056.438 2.764 1.146a3.898 3.898 0 0 1 1.146 2.7v7.244a3.897 3.897 0 0 1-1.146 2.764 3.898 3.898 0 0 1-2.699 1.145l-.065.001H11.91a3.898 3.898 0 0 1-2.764-1.146 3.898 3.898 0 0 1-1.145-2.7L8 20.09v-7.18c0-1.078.438-2.056 1.146-2.764a3.898 3.898 0 0 1 2.7-1.145L11.91 9h7.907zm0 1.607H11.91l-.056.001a2.295 2.295 0 0 0-1.571.675 2.295 2.295 0 0 0-.676 1.627v7.18l.001.056c.015.613.27 1.167.675 1.571.416.417.992.676 1.627.676h7.907l.056-.001a2.295 2.295 0 0 0 1.572-.675c.416-.416.675-.992.675-1.627v-7.236a2.295 2.295 0 0 0-.675-1.571 2.295 2.295 0 0 0-1.628-.676zm-3.953 1.62c1.173 0 2.237.477 3.008 1.247a4.243 4.243 0 0 1 1.248 3.009 4.243 4.243 0 0 1-1.248 3.008 4.243 4.243 0 0 1-3.008 1.248 4.243 4.243 0 0 1-3.009-1.248 4.243 4.243 0 0 1-1.248-3.008c0-1.174.477-2.238 1.248-3.009a4.243 4.243 0 0 1 3.009-1.248zm0 1.607a2.64 2.64 0 0 0-1.873.777 2.64 2.64 0 0 0 0 3.744 2.64 2.64 0 0 0 3.745 0 2.64 2.64 0 0 0 0-3.744 2.64 2.64 0 0 0-1.872-.777zm4.447-2.524a.902.902 0 0 1 .904.904.902.902 0 0 1-.904.905.902.902 0 0 1-.905-.905.902.902 0 0 1 .905-.904z" fill="#333"/>
    </g>
</svg>
