<svg width="32" height="32" viewBox="0 0 32 32" xmlns="http://www.w3.org/2000/svg" xmlns:xlink="http://www.w3.org/1999/xlink">
    <defs>
        <path d="M15 13.5h-3.315V8.754c0-1.242-.519-2.09-1.66-2.09-.871 0-1.356.572-1.582 1.124-.085.198-.072.473-.072.75V13.5H5.087s.042-8.407 0-9.17h3.284v1.438c.194-.629 1.244-1.527 2.919-1.527 2.078 0 3.71 1.32 3.71 4.16V13.5zM1.766 3.182h-.022C.686 3.182 0 2.481 0 1.592 0 .686.706 0 1.786 0c1.079 0 1.742.685 1.763 1.59 0 .888-.684 1.592-1.783 1.592zM.378 4.329h2.924V13.5H.378V4.33z" id="2yuye1vqba"/>
    </defs>
    <g fill="none" fill-rule="evenodd">
        <path d="M16 .5c4.28 0 8.155 1.735 10.96 4.54A15.451 15.451 0 0 1 31.5 16c0 4.28-1.735 8.155-4.54 10.96A15.451 15.451 0 0 1 16 31.5c-4.28 0-8.155-1.735-10.96-4.54A15.451 15.451 0 0 1 .5 16c0-4.28 1.735-8.155 4.54-10.96A15.451 15.451 0 0 1 16 .5z" stroke="#D3D3D3" fill="#FFF"/>
        <use fill="#333" fill-rule="nonzero" xlink:href="#2yuye1vqba" transform="translate(8.5 9)"/>
    </g>
</svg>
