<svg width="32" height="32" viewBox="0 0 32 32" xmlns="http://www.w3.org/2000/svg">
    <g fill="none" fill-rule="evenodd">
        <path d="M16 .5c4.28 0 8.155 1.735 10.96 4.54A15.451 15.451 0 0 1 31.5 16c0 4.28-1.735 8.155-4.54 10.96A15.451 15.451 0 0 1 16 31.5c-4.28 0-8.155-1.735-10.96-4.54A15.451 15.451 0 0 1 .5 16c0-4.28 1.735-8.155 4.54-10.96A15.451 15.451 0 0 1 16 .5z" stroke="#D3D3D3" fill="#FFF"/>
        <path d="M21.565 9H10.312v2.414h7.81l-7.7 9.543a2.164 2.164 0 0 0-.417 1.429V23h10.618a.975.975 0 0 0 .964-.964v-1.293h-8.214l7.239-9.082.396-.482.043-.065a2.857 2.857 0 0 0 .504-1.785l.01-.329z" fill="#333" fill-rule="nonzero"/>
    </g>
</svg>
